<svg width="257" height="337" viewBox="0 0 257 337" fill="none" xmlns="http://www.w3.org/2000/svg">
<circle cx="115.804" cy="129.351" r="115.804" fill="#174C9B"/>
<path d="M131.485 170.816H193.301V185.562H109.415V172.281L167.716 94.8394H110.294V79.898H190.372V92.691L131.485 170.816Z" fill="white"/>
<path d="M108.872 175.12C101.841 183.388 91.5222 187.522 77.9154 187.522C66.6524 187.522 58.0587 184.267 52.1342 177.756C46.2748 171.181 43.3126 161.48 43.2475 148.655V79.9048H61.3139V148.167C61.3139 164.182 67.8243 172.19 80.8451 172.19C94.6472 172.19 103.827 167.047 108.384 156.76V79.9048H126.451V185.569H109.263L108.872 175.12Z" fill="white"/>
</svg>
